<svg width="70" height="70" viewBox="0 0 70 70" fill="none" xmlns="http://www.w3.org/2000/svg">
<rect width="70" height="70" rx="6" fill="#785EEB"/>
<path d="M22.3278 33.5833H25.0833C26.6481 33.5833 27.9167 34.8519 27.9167 36.4167V37.8333C27.9167 39.3981 29.1852 40.6667 30.75 40.6667C32.3148 40.6667 33.5833 41.9352 33.5833 43.5V47.6722M29.3333 23.5753V25.7917C29.3333 27.7477 30.919 29.3333 32.875 29.3333H33.5833C35.1481 29.3333 36.4167 30.6019 36.4167 32.1667C36.4167 33.7315 37.6852 35 39.25 35C40.8148 35 42.0833 33.7315 42.0833 32.1667C42.0833 30.6019 43.3519 29.3333 44.9167 29.3333L46.4247 29.3333M39.25 47.0245V43.5C39.25 41.9352 40.5185 40.6667 42.0833 40.6667H46.4247M47.75 35C47.75 42.0416 42.0416 47.75 35 47.75C27.9584 47.75 22.25 42.0416 22.25 35C22.25 27.9584 27.9584 22.25 35 22.25C42.0416 22.25 47.75 27.9584 47.75 35Z" stroke="white" stroke-width="2" stroke-linecap="round" stroke-linejoin="round"/>
</svg>
